<?xml version="1.0" standalone="no"?>
<!DOCTYPE svg PUBLIC "-//W3C//DTD SVG 20010904//EN"
 "http://www.w3.org/TR/2001/REC-SVG-20010904/DTD/svg10.dtd">
<svg version="1.0" xmlns="http://www.w3.org/2000/svg"
 width="128.000000pt" height="128.000000pt" viewBox="0 0 128.000000 128.000000"
 preserveAspectRatio="xMidYMid meet">
<metadata>
Created by potrace 1.14, written by Peter Selinger 2001-2017
</metadata>
<g transform="translate(0.000000,128.000000) scale(0.100000,-0.100000)"
fill="#000000" stroke="none">
<path d="M60 1260 c0 -7 13 -29 28 -49 16 -20 46 -67 67 -106 21 -38 47 -85
58 -104 10 -19 30 -56 44 -83 l25 -48 -26 -43 c-14 -24 -28 -65 -31 -92 -8
-58 -25 -97 -65 -150 -79 -106 -84 -116 -87 -173 -4 -51 0 -66 35 -132 l39
-75 54 0 c30 0 69 3 88 7 60 12 139 -17 197 -72 45 -42 59 -50 91 -50 21 0 46
7 56 14 23 18 37 68 25 89 -6 11 -5 17 1 17 5 0 26 -34 46 -75 69 -142 139
-160 252 -66 32 26 73 53 91 60 92 37 147 183 108 289 -11 32 -81 112 -98 112
-4 0 -14 13 -22 29 l-15 29 45 -23 c62 -31 82 -52 96 -97 9 -31 14 -36 23 -26
37 39 40 149 7 214 -26 51 -56 78 -114 104 -42 18 -76 27 -188 45 -19 3 -40
11 -47 17 -15 12 -18 32 -4 23 6 -3 34 -8 63 -11 111 -11 123 -12 140 -13 10
-1 33 -15 53 -32 20 -18 38 -30 40 -27 9 9 -15 71 -46 119 -32 50 -44 58 -52
37 -3 -7 -5 2 -4 20 0 17 3 32 6 32 4 0 23 -14 44 -31 41 -34 52 -19 15 21
-68 72 -79 93 -77 142 2 26 0 50 -3 54 -10 9 -27 -30 -30 -65 -2 -27 -6 -31
-23 -26 -48 14 -85 17 -85 7 0 -6 10 -14 22 -18 29 -9 86 -46 92 -59 2 -6 -28
6 -67 25 -66 33 -78 35 -169 36 l-99 1 -37 35 c-69 66 -185 105 -213 72 -17
-21 -5 -127 21 -175 11 -23 20 -43 18 -45 -3 -3 -13 5 -129 108 -140 123 -217
190 -240 206 -13 9 -19 10 -19 2z m938 -382 c-2 -7 4 -12 12 -10 12 3 13 1 3
-9 -15 -15 -40 2 -29 20 10 15 17 14 14 -1z m-451 -677 c-2 -10 0 -26 5 -35
10 -17 38 -22 38 -6 0 6 -4 10 -10 10 -5 0 -10 7 -10 15 0 19 34 20 49 1 10
-12 8 -19 -8 -35 -24 -24 -55 -18 -68 12 -9 22 -7 57 4 57 3 0 3 -8 0 -19z"/>
</g>
</svg>
